<svg xmlns="http://www.w3.org/2000/svg" xml:space="preserve" width="2048" height="2048" style="shape-rendering:geometricPrecision;text-rendering:geometricPrecision;image-rendering:optimizeQuality;fill-rule:evenodd;clip-rule:evenodd"><defs><style>.fil0{fill:#424242;fill-rule:nonzero}</style></defs><g id="Layer_x0020_1"><path class="fil0" d="M844.185 1349.07c-11.146-15.468-26.07-36.2-.039.028l.039-.028z"/><path class="fil0" d="m657.642 924.35-36.75-23.917 11.554 174.269c49.893 48.569 161.21 203.793 211.793 274.33 14.51 20.233 8.273 11.592-.054.038l-.039.029 9.468 13.174.284.333-.029.024.92 1.276c10.797 13.455 16.646 29.294 17.744 45.283a81.453 81.453 0 0 1-9.228 43.584l-49.043 214.792a31.994 31.994 0 0 1-3.055 9.725l-.122-.062c-10.013 20.027-27.23 34.112-46.969 40.69-19.645 6.547-41.812 5.592-61.838-4.422-20.027-10.013-34.111-27.23-40.69-46.968-6.03-18.097-5.694-38.337 2.224-57.068l34.552-177.72-154.896-160.052-.194.05-.732.188-124.058 429.86c-.15.805-.333 1.612-.548 2.417l-.138-.036.098.026c-5.789 21.666-19.834 38.95-37.861 49.373-17.491 10.113-38.691 13.77-59.702 8.722a32.282 32.282 0 0 1-2.03-.472l.01-.04c-21.668-5.79-38.947-19.835-49.37-37.862-10.113-17.488-13.77-38.686-8.722-59.698.06-.301.123-.602.191-.904l.03.007.29-1.123.006.001 125.022-546.776c.173-1.077.4-2.154.689-3.23l.04.01c.307-1.147.308-.92.754-2.332l3.986-416.348c-.065-.833-.1-1.674-.1-2.523 0-26.342 8.7-49.04 22.726-66.945 13.327-17.011 31.338-29.36 51.131-36.124 19.69-6.728 41.377-7.993 62.174-2.88 21.186 5.212 41.27 16.973 57.2 36.228l154.46 154.46 130.884-22.64c.289-.065.578-.129.87-.186l.002.009c37.833-7.535 66.496 8.843 82.782 33.87 6.06 9.315 10.224 19.66 12.325 30.207a86.495 86.495 0 0 1 .2 32.576c-5.401 29.105-25.276 55.017-62.418 62.831-.579.136-1.162.257-1.754.362l-5.571-31.512 5.5 31.5-172.219 30.449c-1.253.27-2.533.472-3.842.594l-2.967-31.863 2.875 31.75c-9.097.848-19.88.962-31.711-1.661-11.954-2.652-24.347-7.936-36.134-17.673zM500.389 288.963c37.031 0 70.564 15.014 94.838 39.287 24.273 24.273 39.287 57.807 39.287 94.838 0 37.031-15.014 70.565-39.287 94.838-24.274 24.273-57.807 39.287-94.838 39.287-37.033 0-70.565-15.014-94.838-39.287-24.273-24.273-39.287-57.807-39.287-94.838 0-37.034 15.014-70.565 39.287-94.838 24.273-24.273 57.805-39.287 94.838-39.287z"/><path class="fil0" d="M1346.03 387.854h.001c122.145 0 233.165 49.947 313.633 130.414 80.468 80.466 130.414 191.486 130.414 313.631v684.611c0 17.673-14.328 32-32 32H933.984c-17.672 0-32-14.327-32-32V831.899c0-122.145 49.946-233.165 130.414-313.631 80.467-80.467 191.488-130.414 313.633-130.414zm.001 64.002h-.001c-104.479 0-199.485 42.765-268.382 111.663-68.897 68.897-111.663 163.902-111.663 268.38v652.61h760.091V831.9c0-104.478-42.765-199.483-111.663-268.38-68.897-68.898-163.903-111.663-268.382-111.663z"/><path class="fil0" d="M1215.14 406.2c0 15.965 14.328 28.909 32 28.909h197.784c17.673 0 32-12.944 32-28.909v-72.253c0-15.965-14.327-28.908-32-28.908H1247.14c-17.673 0-32.001 12.943-32.001 28.908V406.2zM1049.36 1596.15c27.038 0 51.52 10.964 69.242 28.686 17.721 17.72 28.686 42.205 28.686 69.242 0 27.038-10.965 51.52-28.686 69.242-17.721 17.721-42.204 28.685-69.242 28.685-27.038 0-51.52-10.964-69.242-28.685-17.722-17.721-28.686-42.204-28.686-69.242 0-27.038 10.964-51.521 28.686-69.242 17.721-17.722 42.204-28.686 69.242-28.686zM1642.71 1596.15c27.038 0 51.52 10.964 69.242 28.686 17.721 17.72 28.686 42.204 28.686 69.242 0 27.038-10.964 51.52-28.686 69.242-17.721 17.721-42.204 28.685-69.242 28.685-27.037 0-51.52-10.964-69.242-28.685-17.721-17.721-28.686-42.204-28.686-69.242 0-27.037 10.965-51.521 28.686-69.242 17.721-17.722 42.205-28.686 69.242-28.686z"/><path class="fil0" d="M1378.03 288c0-17.673-14.328-32-32-32-17.674 0-32.002 14.327-32.002 32v32.963c0 17.673 14.328 32.001 32.001 32.001s32.001-14.328 32.001-32V288zM1026.38 1214.15h394.439c17.673 0 32 14.328 32 32v175.09c0 17.674-14.327 32.002-32 32.002H1026.38c-17.673 0-32-14.328-32-32.001v-175.09c0-17.673 14.327-32.001 32-32.001zM1517.21 993.473h146.786c17.673 0 32 14.328 32 32v395.77c0 17.673-14.327 32-32 32H1517.21c-17.673 0-32-14.327-32-32v-395.77c0-17.672 14.327-32 32-32zM1026.38 832h394.439c17.673 0 32 14.328 32 32v286.817c0 17.673-14.327 32-32 32H1026.38c-17.673 0-32-14.327-32-32V864c0-17.673 14.327-32.001 32-32.001z"/><path class="fil0" d="M1152.49 848h142.218v-33.032c0-4.658-1.918-8.905-5.006-11.993-3.087-3.087-7.334-5.005-11.992-5.005h-108.221c-4.658 0-8.906 1.918-11.993 5.005-3.088 3.088-5.006 7.335-5.006 11.993V848zm158.218 32h-174.219c-8.836 0-16-7.164-16-16v-49.032c0-13.492 5.508-25.746 14.38-34.618 8.873-8.872 21.128-14.381 34.619-14.381h108.22c13.493 0 25.747 5.509 34.619 14.381s14.381 21.126 14.381 34.618V864c0 8.836-7.165 16-16 16z"/></g><path style="fill:none" d="M0 0h2048v2048H0z"/></svg>